HIERARCHY
ROOT Spine
{
    OFFSET 0.0 0.0 -0.0
    CHANNELS 6 Xposition Yposition Zposition Zrotation Xrotation Yrotation
    JOINT ShoulderCenter
    {
        OFFSET 0.0 28.334827423095703 0.0
        CHANNELS 3 Zrotation Xrotation Yrotation
        JOINT LeftShoulder
        {
            OFFSET 18.348060607910156 0.0 0.0
            CHANNELS 3 Zrotation Xrotation Yrotation
            JOINT LeftElbow
            {
                OFFSET 29.94134521484375 0.0 0.0
                CHANNELS 3 Zrotation Xrotation Yrotation
                JOINT LeftHand
                {
                    OFFSET 31.06193733215332 0.0 0.0
                    CHANNELS 3 Zrotation Xrotation Yrotation
                    End Site
                    {
                        OFFSET 12.424776077270508 0.0 0.0
                    }
                }
            }
        }
        JOINT RightShoulder
        {
            OFFSET -18.348060607910156 0.0 0.0
            CHANNELS 3 Zrotation Xrotation Yrotation
            JOINT RightElbow
            {
                OFFSET -29.94134521484375 0.0 0.0
                CHANNELS 3 Zrotation Xrotation Yrotation
                JOINT RightHand
                {
                    OFFSET -31.06193733215332 0.0 0.0
                    CHANNELS 3 Zrotation Xrotation Yrotation
                    End Site
                    {
                        OFFSET -12.424776077270508 0.0 0.0
                    }
                }
            }
        }
        End Site
        {
            OFFSET 0.0 11.333930969238281 0.0
        }
    }
    JOINT LeftHip
    {
        OFFSET 15.224000043583995 -15.224000043583995 0.0
        CHANNELS 3 Zrotation Xrotation Yrotation
        JOINT LeftKnee
        {
            OFFSET 0.0 -39.3104248046875 0.0
            CHANNELS 3 Zrotation Xrotation Yrotation
            JOINT LeftFoot
            {
                OFFSET 0.0 -45.1298942565918 0.0
                CHANNELS 3 Zrotation Xrotation Yrotation
                End Site
                {
                    OFFSET 0.0 0.0 18.051959991455078
                }
            }
        }
    }
    JOINT RightHip
    {
        OFFSET -15.224000043583995 -15.224000043583995 0.0
        CHANNELS 3 Zrotation Xrotation Yrotation
        JOINT RightKnee
        {
            OFFSET 0.0 -39.3104248046875 0.0
            CHANNELS 3 Zrotation Xrotation Yrotation
            JOINT RightFoot
            {
                OFFSET 0.0 -45.1298942565918 0.0
                CHANNELS 3 Zrotation Xrotation Yrotation
                End Site
                {
                    OFFSET 0.0 0.0 18.051959991455078
                }
            }
        }
    }
}
MOTION
Frames: 4
Frame Time: 0.03333333333333333
1.4000000953674316 8.399999618530273 46.099998474121094 -4.613871023113637 -1.6026712175889175 0.6543619902484256 -7.223720725771716e-08 -6.500503164443227e-08 0.4366189316330335 89.26896683445601 17.286439858886926 179.33991206050786 9.880351699765556e-07 2.0259786738883483e-07 22.21455639858188 -3.975693351829395e-15 2.758691436281349e-32 -7.951386703658791e-16 -85.67053940713073 30.89636115225226 -178.680811217203 -1.1791287624493196e-06 1.15254161638318e-06 -22.964230924748097 -8.945310041616139e-15 3.975693351829393e-16 3.1805546814635164e-15 7.810820353105527 14.294833866119642 -44.35363065168822 9.548077754908466 -14.184999573131472 43.539150945377585 0.0 0.0 4.445477429535799e-17 3.170516391941787 7.564226797328688 16.73297949193055 -4.984585539063773 -10.087628223872471 -17.46535379540192 0.0 0.0 0.0
1.4000000953674316 8.399999618530273 46.099998474121094 -4.613871192145145 -1.6026711762441406 0.3730830121844204 6.563994750942664e-08 -1.1840594303202257e-07 0.7178979175910646 89.25877745011546 16.43789037594625 179.3428682554941 6.388800135387623e-06 6.994076964654843e-07 22.105750439686872 -1.789062008323228e-15 3.1805546814635164e-15 -7.95138670365879e-16 -85.67053940713073 30.89636115225226 -178.680811217203 -1.1791287624493196e-06 1.15254161638318e-06 -22.964230924748097 -8.945310041616139e-15 3.975693351829393e-16 3.1805546814635164e-15 7.741322074950119 14.481862871192684 -44.741273047903015 9.726974702841014 -14.083863219615559 43.1266640847682 0.0 0.0 1.0560435465796834e-16 3.1331824625257467 7.579692120512947 17.016303423555666 -5.024383442598028 -10.208662189734657 -17.686981965636395 0.0 0.0 2.484808344893372e-17
1.4000000953674316 8.399999618530273 46.099998474121094 -4.597807823756314 -1.5971063332858195 0.3655448980841448 1.5515327314511392e-07 9.509268278085703e-08 0.7231115320370263 89.22536642593496 15.10853004458439 179.35265365914475 6.536136765061789e-07 -6.137740857422295e-07 22.012254357484338 -2.683593012484843e-15 9.310583597449553e-33 -3.975693351829397e-16 -85.68368928164227 30.893200917138312 -178.68667838972004 -1.1791287624493196e-06 1.15254161638318e-06 -22.964230924748097 -8.945310041616139e-15 3.975693351829393e-16 3.1805546814635164e-15 7.565423415506254 14.480828273858434 -43.92631310162808 9.644237582201486 -14.110078615447433 42.305709984583046 0.0 0.0 -1.4598249026248563e-16 2.9755542035707587 7.575364967330738 17.243294501639824 -5.0086870376152905 -10.474443367580696 -18.33555746787868 0.0 0.0 0.0
1.4000000953674316 8.5 46.20000076293945 -4.613870876498096 -1.8028849562659737 0.35846580729006056 -3.5523086922842463e-07 -9.664117544319448e-08 0.3856151072968086 89.39545675472058 14.64029375350553 178.73829892293233 -4.792596396879266e-06 -6.755897734642851e-07 22.494566671134464 -3.379339349054986e-15 2.344887720839147e-32 -7.951386703658791e-16 -85.77224071042251 30.43487902893006 -178.8459906173577 1.081863624673647e-06 6.668794145369498e-07 -22.31486756242336 -5.963540027744094e-16 8.276074308844047e-33 -1.5902773407317584e-15 7.588131681711433 14.685576342941816 -43.513349754648324 9.447724759985777 -14.09300533579173 42.23363630850902 0.0 0.0 2.1353821713927425e-17 2.8497228027630475 7.935148214128953 17.205938423937305 -4.951751032668763 -10.78835450240241 -19.129716990752776 0.0 7.951386703658792e-16 0.0
